<?xml version="1.0" encoding="UTF-8" standalone="no"?>
<!DOCTYPE svg PUBLIC "-//W3C//DTD SVG 1.1//EN" "http://www.w3.org/Graphics/SVG/1.1/DTD/svg11.dtd">
<svg width="100%" height="100%" viewBox="0 0 2100 2134" version="1.1" xmlns="http://www.w3.org/2000/svg" xmlns:xlink="http://www.w3.org/1999/xlink" xml:space="preserve" xmlns:serif="http://www.serif.com/" style="fill-rule:evenodd;clip-rule:evenodd;stroke-linejoin:round;stroke-miterlimit:1.41421;">
    <g>
        <path d="M1174.47,871.667l-638.538,293.6l-535.929,-1165.27l773.533,0l400.934,871.667Z" style="fill:#c21429;fill-rule:nonzero;"/>
        <path d="M134.4,0l481.133,1046.13l53.8,-55l-455.8,-991.133l-79.133,0Z" style="fill:#fff;fill-rule:nonzero;"/>
        <path d="M550.733,0l481.067,1046.13l53.867,-55l-455.8,-991.133l-79.134,0Z" style="fill:#fff;fill-rule:nonzero;"/>
        <path d="M922.333,871.667l638.534,293.6l535.933,-1165.27l-773.533,0l-400.934,871.667Z" style="fill:#c21429;fill-rule:nonzero;"/>
        <path d="M1962.4,0l-481.133,1046.13l-53.8,-55l455.8,-991.133l79.133,0Z" style="fill:#fff;fill-rule:nonzero;"/>
        <path d="M1546.07,0l-481.067,1046.13l-53.867,-55l455.8,-991.133l79.134,0Z" style="fill:#fff;fill-rule:nonzero;"/>
        <path d="M1862.47,1314.33c0,70.534 -71.2,130.734 -88.6,195.734c-18,67.266 13.066,154.933 -21.067,213.866c-34.6,59.734 -126.333,76.467 -174.8,125c-48.467,48.467 -65.267,140.2 -125,174.8c-58.933,34.067 -146.533,3.067 -213.8,21.067c-65.067,17.333 -125.267,88.533 -195.733,88.533c-70.534,0 -130.734,-71.2 -195.734,-88.6c-67.266,-18 -154.933,13.067 -213.866,-21.066c-59.734,-34.6 -76.467,-126.334 -125,-174.8c-48.467,-48.467 -140.2,-65.267 -174.8,-125c-34.067,-58.934 -3.067,-146.534 -21.067,-213.8c-17.4,-65 -88.6,-125.267 -88.6,-195.734c0,-70.533 71.2,-130.733 88.6,-195.733c18,-67.267 -13.067,-154.933 21.067,-213.867c34.6,-59.733 126.333,-76.466 174.8,-125c48.466,-48.466 65.266,-140.2 125,-174.8c58.933,-34.066 146.533,-3.066 213.8,-21.066c65,-17.4 125.266,-88.6 195.733,-88.6c70.533,0 130.733,71.2 195.733,88.6c67.267,18 154.934,-13.067 213.867,21.066c59.733,34.6 76.467,126.334 125,174.8c48.467,48.467 140.2,65.267 174.8,125c34.067,58.934 3.067,146.534 21.067,213.8c17.4,65.067 88.6,125.267 88.6,195.8Z" style="fill:#fbad4b;fill-rule:nonzero;"/>
        <path d="M744.933,1220.07l-158.666,0c-40.534,0 -73.734,-33.2 -73.734,-73.734l0.534,-5.066l0,-1.134c-0.534,-42.733 34.333,-77.666 77.066,-77.666l360.934,0c47.8,0 90,-35.467 92.866,-83.267c2.267,-50.067 -37.666,-92.267 -87.8,-92.267l-382.2,0c-42.2,0 -73.733,-35.466 -73.133,-77.666c0,-0.534 0,-0.534 0,-1.134c0,-0.533 0,-0.533 0,-1.133c-0.133,-8.467 1.933,-16.4 4.267,-24.133c-49.334,45.866 -137.2,63.4 -170.934,121.733c-34.066,58.933 -3.066,146.533 -21.066,213.867c-17.4,65.066 -88.6,125.266 -88.6,195.733c0,70.533 71.2,130.733 88.6,195.733c18,67.267 -13.067,154.934 21.066,213.8c34.6,59.734 126.334,76.467 174.8,125c48.467,48.467 65.267,140.267 125,174.8c58.934,34.067 146.534,3.067 213.867,21.067c20.867,5.6 41.267,16.867 61.667,29.4l148.2,0c47.266,0 89.466,-35.467 92.266,-82.733c2.267,-50.667 -37.733,-92.267 -87.8,-92.267l-423.133,-0.133c-49.933,0 -90.133,-41.8 -87.467,-92.267c2.467,-47.333 45,-82.867 92.4,-82.867l193.2,0c47.2,-1.333 85.267,-40 85.267,-87.533c0,-48.4 -39.4,-87.8 -87.8,-87.8l-277.933,0c-40.534,0 -73.734,-33.2 -73.134,-73.667l0,-6.2c-6.6,-93.266 103.334,-73.733 256.334,-73.733c47.8,0 90,-35.467 92.866,-82.733c2.2,-50.4 -37.733,-92 -87.8,-92Z" style="fill:#faa745;fill-rule:nonzero;"/>
        <path d="M538.267,740.2c10.6,-6.267 22.2,-10.8 35.666,-10.8l400.067,0c47.267,0 89.467,-35.467 92.267,-82.733c2.266,-50.667 -37.667,-92.267 -87.8,-92.267l-69.134,0c-20.4,12.533 -40.8,23.867 -61.666,29.4c-67.267,18 -154.934,-13.067 -213.8,21.067c-45.934,26.6 -66.534,86.8 -95.6,135.333Z" style="fill:#faa745;fill-rule:nonzero;"/>
        <path d="M1043.47,1881.53c-312.734,0 -567.2,-254.4 -567.2,-567.2c0,-312.8 254.466,-567.2 567.2,-567.2c312.733,0 567.2,254.4 567.2,567.2c0,312.8 -254.467,567.2 -567.2,567.2Zm0,-1239.93c-370.934,0 -672.734,301.733 -672.734,672.733c0,370.934 301.8,672.734 672.734,672.734c370.933,0 672.733,-301.734 672.733,-672.734c-0.067,-371 -301.867,-672.733 -672.733,-672.733Z" style="fill:#fdbc5a;fill-rule:nonzero;"/>
        <path d="M850.315,1451.99l113.444,-13.763c3.614,28.917 13.346,51.022 29.195,66.315c15.849,15.292 35.034,22.939 57.556,22.939c24.19,0 44.557,-9.176 61.101,-27.527c16.544,-18.352 24.816,-43.098 24.816,-74.239c0,-29.474 -7.924,-52.83 -23.773,-70.069c-15.849,-17.239 -35.173,-25.858 -57.973,-25.858c-15.015,0 -32.949,2.919 -53.803,8.758l12.929,-95.51c31.698,0.835 55.888,-6.047 72.571,-20.645c16.683,-14.597 25.025,-33.991 25.025,-58.181c0,-20.576 -6.117,-36.981 -18.352,-49.215c-12.234,-12.234 -28.5,-18.351 -48.797,-18.351c-20.02,0 -37.12,6.951 -51.3,20.853c-14.181,13.903 -22.8,34.2 -25.859,60.893l-108.022,-18.351c7.508,-36.981 18.838,-66.523 33.992,-88.628c15.153,-22.105 36.285,-39.483 63.395,-52.135c27.11,-12.651 57.487,-18.976 91.13,-18.976c57.557,0 103.713,18.351 138.469,55.053c28.639,30.03 42.958,63.952 42.958,101.766c0,53.664 -29.334,96.483 -88.002,128.459c35.034,7.507 63.048,24.329 84.04,50.466c20.993,26.136 31.489,57.695 31.489,94.676c0,53.663 -19.602,99.402 -58.807,137.217c-39.205,37.814 -88.003,56.722 -146.393,56.722c-55.332,0 -101.21,-15.919 -137.634,-47.755c-36.425,-31.837 -57.556,-73.475 -63.395,-124.914Z" style="fill:#c21429;fill-rule:nonzero;"/>
        <path d="M758.133,1651.53c5.067,-40.733 15.134,-7.4 14.4,-66.666c-0.333,-11.734 -1.066,-23.467 -4.866,-36.534c-1.134,-0.4 -2.267,-0.8 -3.334,-1.266c-9.066,8.333 -14.466,18.133 -18.733,28.533c-14.467,37.8 -1.667,37.733 0.4,72.4c0.133,1.6 -0.267,3.133 -0.2,4.667c-23.333,-30.867 -43.333,-63.6 -59.8,-97.667c2.8,-43.6 40.467,-43.267 34.933,-110.467c-1,-0.666 -2,-1.266 -3,-1.933c-10.4,5.467 -17.533,13.2 -23.733,21.733c-23.333,33.534 -7.733,36.2 -16.933,71.667c-15,-34.067 -26.734,-69.267 -35,-105.267c10.066,-41.333 48.866,-32.266 55.733,-97.466c-0.867,-0.867 -1.667,-1.667 -2.533,-2.534c-10.867,2.6 -19.134,8.067 -26.667,14.4c-31.533,27.867 -13.333,34.267 -31.2,63.734c-6.8,-35.6 -10.333,-71.734 -10.533,-108c17.133,-40.067 54.866,-23.2 72.6,-82.134c-0.6,-1 -1.267,-2 -1.867,-3.066c-10.667,-0.267 -19.4,2.933 -27.6,7.066c-35.6,19.267 -17.333,29.667 -42.733,53.8c1.2,-35.4 5.6,-70.733 13.133,-105.6c26.867,-40.866 57.4,-10.2 86.067,-65.533c-0.4,-1.133 -0.8,-2.267 -1.134,-3.467c-16.533,-4.8 -38.4,1.067 -49.933,12.334c-6.8,6.866 -12.067,17.466 -19,23.666c-3,2.8 -6.267,4.734 -9.667,6.534c9.2,-34.667 21.6,-68.734 37.2,-101.667c0.334,0.4 0.6,0.8 0.934,1.2c40.866,-41.867 26.066,1.867 73.066,-27c7.334,-4.733 14.534,-10.133 21.667,-19.2c-0.067,-1.267 -0.2,-2.467 -0.267,-3.733c-8.266,-5.067 -16.266,-6.067 -24.333,-6.134c-39.133,1.134 -26.333,23.067 -57.4,29.534c0.133,-0.8 0.133,-1.467 0.267,-2.267c25.333,-47 57.533,-91.4 96.6,-131.867c-37.067,35.8 -68.6,75.267 -94.534,117.4c0.734,-11.466 2.2,-16.533 0.8,-30.466c-2.666,-16.6 -7.2,-32.734 -19.533,-46.2c-1.333,0.466 -2.667,1 -4,1.466c-20.667,36.267 -23.867,77 2.133,111.267c-14.866,28.333 -27.4,57.667 -37.466,87.667c-4.867,-28 -15.334,-55.867 -37.667,-73.067c-1.2,0.733 -2.333,1.467 -3.533,2.267c-10.934,41.066 -3.467,85.2 28.6,113.133c-7.667,29.733 -13.067,60 -16.134,90.533c-4.133,-8.933 -8.266,-17.866 -13.266,-25.866c-11.267,-16 -23.734,-30.934 -42.067,-40.534c-1,1 -1.933,2 -2.933,2.934c-0.667,44.266 17.8,86.866 55.266,109.4c-0.8,30.133 0.667,60.333 4.334,90.333c-18.667,-23.8 -42,-46.867 -71.667,-56.4c-0.733,1.2 -1.467,2.333 -2.2,3.533c10.2,44.667 38,83.334 81.533,100c5.934,29.334 14.067,58.334 24.334,86.8c-36.934,-29.466 -64.534,-39.866 -86.534,-42.8c-0.466,1.334 -0.933,2.667 -1.4,4c14.267,28.734 32.867,47.867 52.4,62.6c14.2,9.8 32.734,18.4 54.4,22.467c12.534,27.4 27.267,54.067 44.067,79.8c-45.867,-21.933 -76.867,-26.867 -99.467,-25.867c-0.133,1.4 -0.266,2.867 -0.466,4.267c26.6,31.8 62.866,55.533 107.133,63c7.933,1.733 15.733,1.467 23.6,1.533c13.067,16.667 27.133,32.8 42.2,48.4c7.933,-7.933 15.867,-15.866 23.867,-23.866c-17.334,-16.734 -33.4,-34.267 -48.2,-52.534c-0.734,-5.733 -0.934,-11.533 -0.134,-17Z" style="fill:#f78f2e;fill-rule:nonzero;"/>
        <path d="M1440.2,1527.8c10.333,-28.467 18.4,-57.467 24.333,-86.8c43.6,-16.733 71.4,-55.467 81.534,-100c-0.734,-1.2 -1.467,-2.333 -2.2,-3.533c-29.734,9.533 -53.067,32.6 -71.667,56.4c3.667,-30.067 5.133,-60.267 4.333,-90.334c37.467,-22.533 56,-65.133 55.267,-109.4c-1,-1 -1.933,-2 -2.933,-2.933c-26.267,13.733 -42.867,39.467 -55.267,66.4c-3.067,-30.533 -8.467,-60.8 -16.133,-90.533c31.933,-27.267 39.533,-72.067 28.6,-113.134c-1.2,-0.733 -2.334,-1.533 -3.534,-2.266c-22.333,17.204 -32.8,45.066 -37.666,73.066c-10.134,-30 -22.6,-59.333 -37.467,-87.666c0.733,-0.934 1.4,-1.867 2.133,-2.8c5,-6.667 9.067,-13.8 11.267,-21.934c2.733,-7.866 4.8,-16.066 5.333,-25c-0.066,-18.333 -3.466,-38.466 -16.6,-61.466c-1.333,-0.467 -2.666,-1 -4,-1.467c-20.266,22.133 -20.466,48.467 -18.733,76.667c-26,-42.067 -57.533,-81.6 -94.533,-117.4c39.133,40.466 71.266,84.933 96.6,131.866c0.133,0.734 0.2,1.467 0.266,2.267c-17.333,-3.6 -19.733,-13.733 -33.733,-23.067c-12.933,-8.4 -34.133,-8.866 -47.933,-0.4c-0.067,1.267 -0.2,2.467 -0.267,3.734c9.533,12.2 29.333,26.933 44.267,28.2c26.666,1.933 22.733,-10.4 50.4,17.933c0.333,-0.4 0.6,-0.8 0.933,-1.2c15.6,33 28,67.067 37.2,101.667c-29.333,-15.267 -12.6,-31.867 -51.8,-42.4c-8.333,-2 -17,-3 -26.733,-0.134c-0.4,1.134 -0.734,2.334 -1.134,3.467c32,61.867 54.467,17.933 86.067,65.533c7.533,34.867 11.933,70.267 13.133,105.6c-24.866,-23.6 -6.4,-34.133 -42.733,-53.8c-8.2,-4.133 -16.933,-7.333 -27.6,-7.066c-0.6,1 -1.267,2 -1.867,3.066c5.934,19.867 21.934,40.667 33.4,47.8c21.8,13.334 26.534,4.734 39.2,34.334c-0.2,36.266 -3.733,72.4 -10.533,108c-17.867,-29.467 0.333,-35.867 -31.2,-63.734c-7.533,-6.4 -15.8,-11.8 -26.667,-14.4c-0.866,0.867 -1.666,1.667 -2.466,2.534c6.933,65.533 45.733,56.4 55.733,97.466c-8.267,35.934 -20,71.2 -35,105.267c-9,-34.8 6.533,-38 -16.933,-71.667c-6.267,-8.533 -13.4,-16.2 -23.734,-21.733c-1,0.667 -2,1.267 -3,1.933c-1.8,21.867 5.134,51.267 12.934,64.667c12.4,20.733 20.2,18.733 21.933,45.8c-16.533,34.067 -36.467,66.8 -59.8,97.667c0.2,-24.4 5,-21.734 6.4,-43.134c1.2,-20.666 -9,-47.933 -24.933,-62.466c-1.134,0.4 -2.267,0.8 -3.334,1.266c-18.933,65.534 14.2,83.8 9.334,120.4c-14.867,18.267 -30.934,35.8 -48.2,52.534c7.933,7.933 15.866,15.866 23.866,23.866c15.067,-15.6 29.134,-31.733 42.2,-48.4c53.334,-0.4 98.067,-25.466 130.667,-64.533c-0.133,-1.4 -0.267,-2.867 -0.467,-4.267c-22.6,-1 -53.6,4 -99.466,25.867c16.866,-25.733 31.533,-52.467 44.066,-79.8c47.6,-8.933 85.2,-41.467 106.8,-85.067c-0.466,-1.333 -0.933,-2.666 -1.4,-4c-22,2.8 -49.6,13.2 -86.533,42.667Z" style="fill:#f78f2e;fill-rule:nonzero;"/>
    </g>
</svg>
